<?xml version="1.0" encoding="UTF-8" standalone="no"?>
<!-- Generator: Adobe Illustrator 16.0.0, SVG Export Plug-In . SVG Version: 6.00 Build 0)  -->

<svg
   xmlns:dc="http://purl.org/dc/elements/1.1/"
   xmlns:cc="http://creativecommons.org/ns#"
   xmlns:rdf="http://www.w3.org/1999/02/22-rdf-syntax-ns#"
   xmlns:svg="http://www.w3.org/2000/svg"
   xmlns="http://www.w3.org/2000/svg"
   xmlns:sodipodi="http://sodipodi.sourceforge.net/DTD/sodipodi-0.dtd"
   xmlns:inkscape="http://www.inkscape.org/namespaces/inkscape"
   version="1.1"
   id="Layer_1"
   x="0px"
   y="0px"
   width="143.832"
   height="90"
   viewBox="0 0 143.832 89.999998"
   enable-background="new 0 0 512 512"
   xml:space="preserve"
   inkscape:version="0.91 r13725"
   sodipodi:docname="Tarjeta.svg"><metadata
     id="metadata17"><rdf:RDF><cc:Work
         rdf:about=""><dc:format>image/svg+xml</dc:format><dc:type
           rdf:resource="http://purl.org/dc/dcmitype/StillImage" /><dc:title></dc:title></cc:Work></rdf:RDF></metadata><defs
     id="defs15" /><sodipodi:namedview
     pagecolor="#ffffff"
     bordercolor="#666666"
     borderopacity="1"
     objecttolerance="10"
     gridtolerance="10"
     guidetolerance="10"
     inkscape:pageopacity="0"
     inkscape:pageshadow="2"
     inkscape:window-width="959"
     inkscape:window-height="744"
     id="namedview13"
     showgrid="false"
     inkscape:zoom="1.3037281"
     inkscape:cx="291.62306"
     inkscape:cy="161.04233"
     inkscape:window-x="65"
     inkscape:window-y="24"
     inkscape:window-maximized="1"
     inkscape:current-layer="g3" /><g
     id="g3"
     transform="translate(0,-421.99998)"><path
       d="m 136.38911,423.92832 -125.607473,0 c -4.9592494,0 -8.971963,4.01299 -8.971963,8.97195 l 0,71.7757 c 0,4.95926 4.0129942,8.97197 8.971963,8.97197 l 125.607473,0 c 4.95926,0 8.97197,-4.01299 8.97197,-8.97197 l 0,-71.7757 c 0,-4.95896 -4.01271,-8.97195 -8.97197,-8.97195 z m 0,80.74765 -125.607473,0 0,-44.8598 125.607473,0 0,44.8598 z m 0,-62.80373 -125.607473,0 0,-8.97197 125.607473,0 0,8.97197 z"
       id="path5"
       style="fill:#cccccc;fill-opacity:1;stroke:#cccccc;stroke-width:0.28037381;stroke-opacity:1"
       inkscape:connector-curvature="0" /><rect
       x="19.753599"
       y="486.73206"
       width="17.943924"
       height="8.971962"
       id="rect7"
       style="fill:#cccccc;fill-opacity:1" /><rect
       x="46.669491"
       y="486.73206"
       width="17.943924"
       height="8.971962"
       id="rect9"
       style="fill:#cccccc;fill-opacity:1" /><path
       d="m 96.015283,495.70402 c 3.460938,0 6.588787,-1.34944 8.971967,-3.49599 2.38318,2.14655 5.51103,3.49599 8.97196,3.49599 7.42991,0 13.45794,-6.02804 13.45794,-13.45795 0,-7.42991 -6.02803,-13.45794 -13.45794,-13.45794 -3.46093,0 -6.58878,1.34944 -8.97196,3.49598 -2.38318,-2.14654 -5.511029,-3.49598 -8.971967,-3.49598 -7.429905,0 -13.457942,6.02803 -13.457942,13.45794 0,7.42991 6.028037,13.45795 13.457942,13.45795 z"
       id="path11"
       style="fill:#cccccc;fill-opacity:1"
       inkscape:connector-curvature="0" /></g></svg>